# xmcd
#
# Track frame offsets:
# 150
# 16039
# 33547
# 52915
# 75246
# 100799
# 113442
# 144435
# 156185
# 188814
# 237904
# 261128
# 276753
#
# Disc length: 3963 seconds
#
#
# Revision: 0
# Processed by: cddbd v1.5PL3 Copyright (c) Steve Scherf et al.
# Submitted via: FreeRIP 2.53 
#
DISCID=960f790d
DTITLE=B. B. King - Most Famous Hits - CD2
DYEAR=2002
DGENRE=Blues
TTITLE0=Long Nights
TTITLE1=That Evil Child
TTITLE2=Sweet Sixteen
TTITLE3=The Thrill Is Gone
TTITLE4=Guess Who
TTITLE5=Please Love Me
TTITLE6=Outside Help
TTITLE7=Payin' The Cost To Be The Boss
TTITLE8=All Over Again
TTITLE9=B.B.'s Theme
TTITLE10=Darling You Know I Love You
TTITLE11=Caladonia
TTITLE12=Why I Sing The Blues
EXTD=
EXTT0=
EXTT1=
EXTT2=
EXTT3=
EXTT4=
EXTT5=
EXTT6=
EXTT7=
EXTT8=
EXTT9=
EXTT10=
EXTT11=
EXTT12=
PLAYORDER=
